<?xml version="1.0" standalone="no"?>
<svg viewBox="0 0 200 200" xmlns="http://www.w3.org/2000/svg">
  <path fill="#1D2549" d="M38.3,-59.7C49.4,-52.4,58,-41.4,66.2,-28.7C74.4,-16,82,-1.5,79.5,10.9C76.9,23.4,64,33.8,51.5,40.2C39.1,46.6,27.1,48.9,14.6,54.7C2.2,60.6,-10.5,70,-23.6,70.6C-36.7,71.3,-50.2,63.2,-54.7,51.2C-59.3,39.2,-55,23.2,-56.7,8.4C-58.5,-6.5,-66.4,-20.2,-64.5,-31.5C-62.5,-42.8,-50.7,-51.7,-38.4,-58.4C-26,-65.2,-13,-69.7,0.3,-70.2C13.6,-70.6,27.2,-67,38.3,-59.7Z" transform="translate(100 100)" />
</svg>
